# xmcd CD Database Entry
#
# Track frame offsets:
# 150
# 138817
# 166455
#
# Disc length: 2596 seconds
#
# Revision: 2
# Processed by: cddbd v1.5.2PL0 Copyright (c) Steve Scherf et al.
# Submitted via: tcd 2.0b
#
DISCID=1e0a2203
DTITLE=未知 - 未知
DYEAR=1900
DGENRE=
TTITLE0=トラック 1
TTITLE1=トラック 2
TTITLE2=トラック 3
EXTD=
EXTT0=
EXTT1=
EXTT2=
PLAYORDER=
